# xmcd CD database file
#
# Track frame offsets:
#	150
#	18668
#	36532
#	49966
#	64506
#	77826
#	96376
#	111758
#	127942
#	143432
#	160168
#
# Disc length: 2410 seconds
#
# Revision: 1
# Processed by: cddbd v1.5.1PL0 Copyright (c) Steve Scherf et al.
# Submitted via: CDex 1.51
#
DISCID=9109680b
DTITLE=Mike Carr - Legend
DYEAR=2005
DGENRE=Country
TTITLE0=Anytown
TTITLE1=Legend
TTITLE2=That's What I Call Livin'
TTITLE3=The Honky Tonk Kid
TTITLE4=Leave Me Be
TTITLE5=She's Gone
TTITLE6=Mad In America
TTITLE7=A Long Way To Hraven
TTITLE8=Hurricane (Shake Me Up)
TTITLE9=I Know Lonely
TTITLE10=Thats Last Of Me
EXTD=YEAR: 2005
EXTT0=
EXTT1=
EXTT2=
EXTT3=
EXTT4=
EXTT5=
EXTT6=
EXTT7=
EXTT8=
EXTT9=
EXTT10=
PLAYORDER=
